name rise31.4854peak64.571fall78.6902.mot
datacolumns 19
datarows 23
range 10.25329400000000 10.28996500000000
endheader
time	ground_force1_vx	ground_force1_vy	ground_force1_vz	ground_force1_px	ground_force1_py	ground_force1_pz	ground_force2_vx	ground_force2_vy	ground_force2_vz	ground_force2_px	ground_force2_py	ground_force2_pz	ground_torque1_x	ground_torque1_y	ground_torque1_z	ground_torque2_x	ground_torque2_y	ground_torque2_z	
10.25329400000000	-53.55563200000000	805.92640300000005	45.22972200000000	0.10012500000000	0.00000000000000	0.08778100000000	-5.53093800000000	16.05168000000000	5.38741600000000	0.00000000000000	0.00000000000000	0.00000000000000	0.00000000000000	17.10981500000000	0.00000000000000	0.00000000000000	1.71813200000000	0.00000000000000	
10.25496700000000	-53.78856600000000	803.14480500000002	44.88649500000000	0.09971500000000	0.00000000000000	0.08782400000000	-6.93682900000000	21.28611500000000	6.93213800000000	0.00000000000000	0.00000000000000	0.00000000000000	0.00000000000000	17.04835600000000	0.00000000000000	0.00000000000000	2.23102000000000	0.00000000000000	
10.25663000000000	-54.04479800000000	800.29201899999998	44.52694100000000	0.09930400000000	0.00000000000000	0.08786400000000	-8.34782000000000	26.95674800000000	8.54320100000000	0.35292000000000	0.00000000000000	-0.06780400000000	0.00000000000000	16.98924900000000	0.00000000000000	0.00000000000000	5.22117200000000	0.00000000000000	
10.25829800000000	-54.32486300000000	797.36846600000001	44.15135400000000	0.09889000000000	0.00000000000000	0.08790100000000	-9.70830800000000	32.94135300000000	10.17100200000000	0.35654100000000	0.00000000000000	-0.06844800000000	0.00000000000000	16.93257400000000	0.00000000000000	0.00000000000000	6.28798700000000	0.00000000000000	
10.25995900000000	-54.62921000000000	794.37441799999999	43.76003300000000	0.09847500000000	0.00000000000000	0.08793500000000	-10.96457500000000	39.11240100000000	11.76587700000000	0.35988600000000	0.00000000000000	-0.06906300000000	0.00000000000000	16.87839700000000	0.00000000000000	0.00000000000000	7.35461700000000	0.00000000000000	
10.26163000000000	-54.95819500000000	791.30999499999996	43.35328100000000	0.09805600000000	0.00000000000000	0.08796500000000	-12.06872100000000	45.34754400000000	13.28181400000000	0.36298700000000	0.00000000000000	-0.06965100000000	0.00000000000000	16.82676700000000	0.00000000000000	0.00000000000000	8.39210700000000	0.00000000000000	
10.26329200000000	-55.31207800000000	788.17515900000001	42.93140400000000	0.09763500000000	0.00000000000000	0.08799100000000	-12.98182000000000	51.53880500000000	14.67956600000000	0.36587000000000	0.00000000000000	-0.07021700000000	0.00000000000000	16.77771800000000	0.00000000000000	0.00000000000000	9.37499900000000	0.00000000000000	
10.26496700000000	-55.69102100000000	784.96971099999996	42.49471000000000	0.09721000000000	0.00000000000000	0.08801400000000	-13.67600300000000	57.59950900000000	15.92885600000000	0.36855800000000	0.00000000000000	-0.07076200000000	0.00000000000000	16.73126800000000	0.00000000000000	0.00000000000000	10.28285200000000	0.00000000000000	
10.26662800000000	-56.09508200000000	781.69328800000005	42.04350800000000	0.09678200000000	0.00000000000000	0.08803300000000	-14.13534600000000	63.46847800000000	17.00955000000000	0.37107000000000	0.00000000000000	-0.07129000000000	0.00000000000000	16.68741700000000	0.00000000000000	0.00000000000000	11.10112900000000	0.00000000000000	
10.26829800000000	-56.52421700000000	778.34536600000001	41.57810500000000	0.09635000000000	0.00000000000000	0.08804800000000	-14.35566300000000	69.11148100000000	17.91181400000000	0.37342300000000	0.00000000000000	-0.07180100000000	0.00000000000000	16.64615000000000	0.00000000000000	0.00000000000000	11.82147800000000	0.00000000000000	
10.26996700000000	-56.97827100000000	774.92525400000000	41.09880700000000	0.09591400000000	0.00000000000000	0.08806000000000	-14.34335300000000	74.52022800000000	18.63540500000000	0.37563200000000	0.00000000000000	-0.07229700000000	0.00000000000000	16.60743300000000	0.00000000000000	0.00000000000000	12.44144900000000	0.00000000000000	
10.27162700000000	-57.45697800000000	771.43209999999999	40.60591800000000	0.09547300000000	0.00000000000000	0.08806700000000	-14.11357900000000	79.70938500000000	19.18829700000000	0.37771000000000	0.00000000000000	-0.07277900000000	0.00000000000000	16.57121500000000	0.00000000000000	0.00000000000000	12.96377900000000	0.00000000000000	
10.27329200000000	-57.95996300000000	767.86488999999995	40.09973800000000	0.09502800000000	0.00000000000000	0.08807000000000	-13.68802900000000	84.71221000000000	19.58486300000000	0.37966600000000	0.00000000000000	-0.07324900000000	0.00000000000000	16.53742900000000	0.00000000000000	0.00000000000000	13.39536900000000	0.00000000000000	
10.27496300000000	-58.48673300000000	764.22245199999998	39.58056500000000	0.09457900000000	0.00000000000000	0.08806900000000	-13.09251900000000	89.57540700000000	19.84384500000000	0.38151200000000	0.00000000000000	-0.07370800000000	0.00000000000000	16.50598800000000	0.00000000000000	0.00000000000000	13.74609500000000	0.00000000000000	
10.27662800000000	-59.03668000000000	760.50346000000002	39.04869200000000	0.09412400000000	0.00000000000000	0.08806400000000	-12.35466400000000	94.35375700000000	19.98632500000000	0.38325500000000	0.00000000000000	-0.07415500000000	0.00000000000000	16.47678900000000	0.00000000000000	0.00000000000000	14.02758000000000	0.00000000000000	
10.27829400000000	-59.60907700000000	756.70643700000005	38.50441100000000	0.09366500000000	0.00000000000000	0.08805500000000	-11.50179900000000	99.10500200000000	20.03384400000000	0.38490300000000	0.00000000000000	-0.07459300000000	0.00000000000000	16.44971200000000	0.00000000000000	0.00000000000000	14.25204200000000	0.00000000000000	
10.27996700000000	-60.20308200000000	752.82976699999995	37.94800800000000	0.09320100000000	0.00000000000000	0.08804200000000	-10.55925900000000	103.88534700000000	20.00680900000000	0.38646400000000	0.00000000000000	-0.07502100000000	0.00000000000000	16.42461800000000	0.00000000000000	0.00000000000000	14.43127900000000	0.00000000000000	
10.28163300000000	-60.81773100000000	748.87169300000005	37.37976500000000	0.09273100000000	0.00000000000000	0.08802400000000	-9.54910800000000	108.74583000000000	19.92326400000000	0.38794100000000	0.00000000000000	-0.07544000000000	0.00000000000000	16.40135100000000	0.00000000000000	0.00000000000000	14.57587500000000	0.00000000000000	
10.28329900000000	-61.45194300000000	744.83033200000000	36.79996400000000	0.09225700000000	0.00000000000000	0.08800200000000	-8.48932500000000	113.72967700000000	19.79803900000000	0.38934200000000	0.00000000000000	-0.07585000000000	0.00000000000000	16.37973800000000	0.00000000000000	0.00000000000000	14.69462700000000	0.00000000000000	
10.28496200000000	-62.10451600000000	740.70367899999997	36.20888000000000	0.09177700000000	0.00000000000000	0.08797500000000	-7.39343500000000	118.87067999999999	19.64230100000000	0.39067000000000	0.00000000000000	-0.07625100000000	0.00000000000000	16.35959200000000	0.00000000000000	0.00000000000000	14.79421400000000	0.00000000000000	
10.28662900000000	-62.77413300000000	736.48962200000005	35.60679100000000	0.09129200000000	0.00000000000000	0.08794400000000	-6.27052400000000	124.19253500000001	19.46344900000000	0.39192900000000	0.00000000000000	-0.07664500000000	0.00000000000000	16.34070500000000	0.00000000000000	0.00000000000000	14.87908400000000	0.00000000000000	
10.28829800000000	-63.45935800000000	732.18594499999995	34.99397100000000	0.09080200000000	0.00000000000000	0.08790900000000	-5.12558800000000	129.70901100000000	19.26531000000000	0.39312400000000	0.00000000000000	-0.07703000000000	0.00000000000000	16.32285800000000	0.00000000000000	0.00000000000000	14.95152900000000	0.00000000000000	
10.28996500000000	-64.15864100000000	727.79034400000000	34.37069400000000	0.09030600000000	0.00000000000000	0.08786900000000	-3.96010200000000	135.42479000000000	19.04856200000000	0.39425700000000	0.00000000000000	-0.07740800000000	0.00000000000000	16.30581400000000	0.00000000000000	0.00000000000000	15.01191300000000	0.00000000000000	
